<svg xmlns="http://www.w3.org/2000/svg" viewBox="0 0 64 64">
  <ellipse cx="33" cy="58" rx="16" ry="4" fill="rgba(0,0,0,0.18)"/>
  <circle cx="32" cy="33" r="24" fill="#ECEEE6" stroke="#9B9B8A" stroke-width="1.5"/>
  <path d="M18 27 Q25 18 35 23 Q42 27 38 37 Q33 44 24 40 Q15 35 18 27Z" fill="#D8D8CE" stroke="#9B9B8A" stroke-width="0.9" stroke-linejoin="round"/>
  <path d="M35 17 Q44 14 47 25 Q49 33 43 37 Q37 41 34 33 Q31 25 35 17Z" fill="#DCDCD2" stroke="#9B9B8A" stroke-width="0.9" stroke-linejoin="round"/>
  <path d="M14 37 Q21 31 29 35 Q35 39 32 47 Q28 53 19 51 Q11 47 14 37Z" fill="#D4D4CA" stroke="#9B9B8A" stroke-width="0.9" stroke-linejoin="round"/>
  <path d="M36 35 Q44 31 48 41 Q50 49 42 51 Q35 53 33 45 Q32 39 36 35Z" fill="#D0D0C6" stroke="#9B9B8A" stroke-width="0.9" stroke-linejoin="round"/>
  <ellipse cx="22" cy="21" rx="7" ry="4" fill="rgba(255,255,255,0.38)" transform="rotate(-28 22 21)"/>
</svg>
