<svg xmlns="http://www.w3.org/2000/svg" viewBox="0 0 64 64">
  <ellipse cx="32" cy="61" rx="22" ry="3.5" fill="rgba(0,0,0,0.18)"/>
  <path d="M5 37 Q5 13 32 11 Q59 13 59 37 Z" fill="#2E7D32"/>
  <path d="M8 37 Q8 17 32 15 Q56 17 56 37 Z" fill="#E8F5E9"/>
  <path d="M12 37 Q12 21 32 19 Q52 21 52 37 Z" fill="#E53935"/>
  <ellipse cx="22" cy="31" rx="2" ry="3.5" fill="#1A1A1A" transform="rotate(-20 22 31)"/>
  <ellipse cx="30" cy="27" rx="2" ry="3.5" fill="#1A1A1A"/>
  <ellipse cx="38" cy="27" rx="2" ry="3.5" fill="#1A1A1A"/>
  <ellipse cx="46" cy="31" rx="2" ry="3.5" fill="#1A1A1A" transform="rotate(20 46 31)"/>
  <ellipse cx="34" cy="33" rx="2" ry="3.5" fill="#1A1A1A" transform="rotate(10 34 33)"/>
  <path d="M5 37 Q8 34 11 37 Q14 40 17 37 Q20 34 23 37 Q26 40 29 37 Q32 34 35 37 Q38 40 41 37 Q44 34 47 37 Q50 40 53 37 Q56 34 59 37 Q59 44 59 51 Q59 59 32 59 Q5 59 5 51 Z" fill="#2E7D32"/>
</svg>
